<?xml version="1.0" encoding="UTF-8"?>
<svg width="100px" height="100px" viewBox="0 0 100 100" version="1.1" xmlns="http://www.w3.org/2000/svg" xmlns:xlink="http://www.w3.org/1999/xlink">
    <!-- Generator: Sketch 50.2 (55047) - http://www.bohemiancoding.com/sketch -->
    <title>Artboard 3</title>
    <desc>Created with Sketch.</desc>
    <defs>
        <path d="M37,0 L0,16.333 L0,44.667 C0,64.417 12.264,80.0826667 36.792,91.664 L37,0 Z" id="path-1"></path>
    </defs>
    <g id="Artboard-3" stroke="none" stroke-width="1" fill="none" fill-rule="evenodd">
        <g id="Icon" transform="translate(12.000000, 4.000000)">
            <g id="Fill">
                <g id="Shield" fill="#FF6400">
                    <path d="M37,0 L0,16.333 L0,44.667 C0,64.417 12.264,80.0826667 36.792,91.664 C61.3753333,80.7346685 73.667,65.0690019 73.667,44.667 C73.667,37.5556667 73.667,28.111 73.667,16.333 L37,0 Z" id="Stroke-1-Copy-2"></path>
                </g>
                <g id="Diagonals">
                    <mask id="mask-2" fill="white">
                        <use xlink:href="#path-1"></use>
                    </mask>
                    <g id="Stroke-1-Copy-2"></g>
                    <polygon id="Path-4" fill="#FFB17E" fill-rule="nonzero" mask="url(#mask-2)" points="-2.87216404 19.8622856 -4.12783596 17.1377144 53.372164 -9.36228558 54.627836 -6.63771442"></polygon>
                    <polygon id="Path-4-Copy" fill="#FFB17E" fill-rule="nonzero" mask="url(#mask-2)" points="-2.87216404 27.8622856 -4.12783596 25.1377144 53.372164 -1.36228558 54.627836 1.36228558"></polygon>
                    <polygon id="Path-4-Copy-2" fill="#FFB17E" fill-rule="nonzero" mask="url(#mask-2)" points="-2.87216404 35.8622856 -4.12783596 33.1377144 53.372164 6.63771442 54.627836 9.36228558"></polygon>
                    <polygon id="Path-4-Copy-3" fill="#FFB17E" fill-rule="nonzero" mask="url(#mask-2)" points="-2.87216404 43.8622856 -4.12783596 41.1377144 53.372164 14.6377144 54.627836 17.3622856"></polygon>
                    <polygon id="Path-4-Copy-4" fill="#FFB17E" fill-rule="nonzero" mask="url(#mask-2)" points="-2.87216404 51.8622856 -4.12783596 49.1377144 53.372164 22.6377144 54.627836 25.3622856"></polygon>
                    <polygon id="Path-4-Copy-5" fill="#FFB17E" fill-rule="nonzero" mask="url(#mask-2)" points="-2.87216404 59.8622856 -4.12783596 57.1377144 53.372164 30.6377144 54.627836 33.3622856"></polygon>
                    <polygon id="Path-4-Copy-6" fill="#FFB17E" fill-rule="nonzero" mask="url(#mask-2)" points="-2.87216404 67.8622856 -4.12783596 65.1377144 53.372164 38.6377144 54.627836 41.3622856"></polygon>
                    <polygon id="Path-4-Copy-7" fill="#FFB17E" fill-rule="nonzero" mask="url(#mask-2)" points="-2.87216404 75.8622856 -4.12783596 73.1377144 53.372164 46.6377144 54.627836 49.3622856"></polygon>
                    <polygon id="Path-4-Copy-8" fill="#FFB17E" fill-rule="nonzero" mask="url(#mask-2)" points="-2.87216404 83.8622856 -4.12783596 81.1377144 53.372164 54.6377144 54.627836 57.3622856"></polygon>
                    <polygon id="Path-4-Copy-9" fill="#FFB17E" fill-rule="nonzero" mask="url(#mask-2)" points="-2.87216404 91.8622856 -4.12783596 89.1377144 53.372164 62.6377144 54.627836 65.3622856"></polygon>
                    <polygon id="Path-4-Copy-10" fill="#FFB17E" fill-rule="nonzero" mask="url(#mask-2)" points="-2.87216404 99.8622856 -4.12783596 97.1377144 53.372164 70.6377144 54.627836 73.3622856"></polygon>
                    <polygon id="Path-4-Copy-11" fill="#FFB17E" fill-rule="nonzero" mask="url(#mask-2)" points="-2.87216404 107.862286 -4.12783596 105.137714 53.372164 78.6377144 54.627836 81.3622856"></polygon>
                </g>
            </g>
            <path d="M36.9963352,2.18781318 L2,17.6363305 L2,44.667 C2,63.3349336 13.4886396,78.2274536 36.8168646,89.4601572 C60.1690518,78.8514323 71.667,63.9707038 71.667,44.667 C71.667,33.1522277 71.667,32.8419269 71.667,17.6315628 L36.9963352,2.18781318 Z" id="Frame" stroke="#FF6400" stroke-width="4"></path>
            <path d="M26.375,55 C25.999998,55 25.6770848,54.8645847 25.40625,54.59375 C25.1354153,54.3229152 25,54.000002 25,53.625 L25,40.375 C25,40 25.1354153,39.677084 25.40625,39.406248 C25.6770848,39.135416 25.999998,39 26.375,39 L26.5625,39 L27.75,39 L27.75,37.0625 C27.75,34.187484 28.6458244,31.791676 30.4375,29.875 C32.229176,27.958324 34.416652,27 37,27 C39.583348,27 41.770824,27.958324 43.5625,29.875 C45.354176,31.791676 46.25,34.187484 46.25,37.0625 L46.25,39 L47.625,39 C48,39 48.322916,39.135416 48.593752,39.406248 C48.864584,39.677084 49,40 49,40.375 L49,53.625 C49,54.000002 48.864584,54.3229152 48.593752,54.59375 C48.322916,54.8645847 48,55 47.625,55 L26.375,55 Z M31.0625,37.0625 L31.0625,39 L32.125,39 L41.8125,39 L42.9375,39 L42.9375,37.0625 C42.9375,34.979156 42.354172,33.312508 41.1875,32.0625 L41.1875,32 C40.062496,30.79166 38.666676,30.1875 37,30.1875 C35.333324,30.1875 33.937504,30.79166 32.8125,32 L32.8125,32.0625 C31.645828,33.312508 31.0625,34.979156 31.0625,37.0625 Z" id="Lock" fill="#FFFFFF"></path>
        </g>
    </g>
</svg>